<svg width="40" height="41" viewBox="0 0 40 41" fill="none" xmlns="http://www.w3.org/2000/svg">
<path d="M20 20.4146C25.525 20.4146 30 15.9396 30 10.4146C30 4.88955 25.525 0.414551 20 0.414551C14.475 0.414551 10 4.88955 10 10.4146C10 15.9396 14.475 20.4146 20 20.4146ZM20 5.41455C22.75 5.41455 25 7.66455 25 10.4146C25 13.1646 22.75 15.4146 20 15.4146C17.25 15.4146 15 13.1646 15 10.4146C15 7.66455 17.25 5.41455 20 5.41455ZM20 22.9146C13.325 22.9146 0 26.2646 0 32.9146V40.4146H40V32.9146C40 26.2646 26.675 22.9146 20 22.9146ZM35 35.4146H5V32.9396C5.5 31.1396 13.25 27.9146 20 27.9146C26.75 27.9146 34.5 31.1396 35 32.9146V35.4146Z" fill="white"/>
</svg>
