<svg width="51" height="51" viewBox="0 0 51 51" fill="none" xmlns="http://www.w3.org/2000/svg">
<path d="M9.19003 6.05701C19.01 -1.99049 33.5225 -1.43049 42.69 7.73701C52.4525 17.4995 52.4525 33.3295 42.69 43.092C32.9275 52.8545 17.0975 52.8545 7.33503 43.092C4.33954 40.0999 2.15362 36.3956 0.982525 32.3269C-0.188574 28.2583 -0.306428 23.9587 0.640027 19.832L0.832527 19.0495L5.66753 20.3245C4.46889 24.8802 4.91676 29.7127 6.93222 33.9705C8.94768 38.2282 12.4014 41.638 16.6846 43.5987C20.9679 45.5594 25.8057 45.9454 30.3457 44.6884C34.8856 43.4315 38.8361 40.6125 41.5011 36.7281C44.1661 32.8436 45.3744 28.1432 44.9131 23.4552C44.4519 18.7671 42.3506 14.3923 38.9797 11.1018C35.6088 7.81124 31.1846 5.81617 26.4867 5.46818C21.7889 5.12018 17.119 6.44158 13.3 9.19951L12.75 9.61451L15.2925 12.157L3.80253 14.807L6.45253 3.31701L9.19003 6.05701ZM27.5125 10.4145V15.4145H33.7625V20.4145H20.0125C19.7002 20.4139 19.3989 20.5303 19.1681 20.7408C18.9372 20.9512 18.7936 21.2405 18.7653 21.5516C18.7371 21.8627 18.8264 22.173 19.0156 22.4216C19.2048 22.6701 19.4802 22.8389 19.7875 22.8945L20.0125 22.9145H30.0125C31.6701 22.9145 33.2598 23.573 34.4319 24.7451C35.604 25.9172 36.2625 27.5069 36.2625 29.1645C36.2625 30.8221 35.604 32.4118 34.4319 33.5839C33.2598 34.756 31.6701 35.4145 30.0125 35.4145H27.5125V40.4145H22.5125V35.4145H16.2625V30.4145H30.0125C30.3249 30.4151 30.6262 30.2987 30.857 30.0882C31.0878 29.8778 31.2315 29.5885 31.2597 29.2775C31.2879 28.9664 31.1987 28.656 31.0095 28.4074C30.8203 28.1589 30.5449 27.9902 30.2375 27.9345L30.0125 27.9145H20.0125C18.3549 27.9145 16.7652 27.256 15.5931 26.0839C14.421 24.9118 13.7625 23.3221 13.7625 21.6645C13.7625 20.0069 14.421 18.4172 15.5931 17.2451C16.7652 16.073 18.3549 15.4145 20.0125 15.4145H22.5125V10.4145H27.5125Z" fill="white"/>
</svg>
